<svg width="35" height="38" viewBox="0 0 35 38" fill="none" xmlns="http://www.w3.org/2000/svg">
<rect y="1" width="35" height="35" fill="white"/>
<g clip-path="url(#clip0_68_1663)">
<path d="M30.9116 24.7641C30.9116 24.8196 30.9107 24.8761 30.9107 24.9324C30.9062 25.4115 30.8758 25.8853 30.8204 26.3527C30.6836 27.5187 30.394 28.6416 29.9721 29.7002C29.9524 29.7494 29.9328 29.7987 29.9122 29.8479C29.8916 29.8963 29.871 29.9455 29.8514 29.9947C29.8299 30.0431 29.8093 30.0923 29.7879 30.1407C29.7772 30.1639 29.7664 30.1872 29.7566 30.2114C29.7432 30.2409 29.7298 30.2705 29.7164 30.3001C29.6949 30.3475 29.6726 30.3959 29.6502 30.4442C27.8526 34.2609 24.294 37.0988 20.0157 37.7982C19.9594 37.8071 19.9031 37.8161 19.8468 37.8242C19.6332 37.8555 19.4177 37.8824 19.2014 37.9039C18.817 37.9407 18.4282 37.9603 18.034 37.963C10.8425 38.0052 5 32.1781 5 24.9835C5 24.868 5.00178 24.7525 5.00445 24.6379C5.00623 24.5805 5.00801 24.5233 5.01068 24.4659C5.01247 24.4238 5.01425 24.3817 5.01692 24.3396C5.02858 24.096 5.04817 23.8543 5.07506 23.6142C5.08673 23.5058 5.10008 23.3974 5.11442 23.2901C5.14033 23.1002 5.17069 22.9112 5.20471 22.7232C5.21539 22.6686 5.22527 22.613 5.23685 22.5575C5.25653 22.4554 5.27799 22.3533 5.30034 22.2522C5.31013 22.2092 5.32001 22.1662 5.3307 22.1232C5.41921 21.7444 5.52561 21.3719 5.64804 21.0056C5.66505 20.9537 5.68295 20.9017 5.70164 20.8498C5.71598 20.8068 5.73112 20.7647 5.74723 20.7217C5.77938 20.6312 5.81339 20.5417 5.84821 20.4521C5.86432 20.4091 5.88124 20.367 5.89825 20.3249C5.92594 20.255 5.95452 20.1852 5.98408 20.1154C6.00732 20.0599 6.03145 20.0043 6.05558 19.9488C6.07971 19.8933 6.10384 19.8386 6.12886 19.7841C6.15745 19.7213 6.18701 19.6587 6.21559 19.5969C6.23794 19.5504 6.26029 19.5038 6.28353 19.4572C6.31033 19.4026 6.33713 19.3488 6.36402 19.2951C6.39171 19.2414 6.41851 19.1877 6.44719 19.1348C6.47488 19.0811 6.50257 19.0283 6.53213 18.9754C6.56071 18.9226 6.58938 18.8697 6.61886 18.8178C6.64477 18.7713 6.67157 18.7247 6.69837 18.679C6.85571 18.405 7.02373 18.1372 7.20163 17.8758C7.22932 17.8337 7.2579 17.7916 7.28747 17.7504C7.83632 16.9614 8.47011 16.2344 9.1754 15.5806C9.43825 15.3379 9.71081 15.1051 9.99245 14.883C14.3341 11.4603 16.3016 5.82655 15.0448 0.437331C14.9662 0.0997021 15.2728 0.00211549 15.4605 0.0460028C15.4694 0.0486789 15.4784 0.0513549 15.4873 0.054031C15.4917 0.055815 15.4971 0.057599 15.5016 0.058491C15.5624 0.0790967 15.6231 0.0988103 15.6831 0.120308C15.8404 0.174008 15.9968 0.231364 16.1515 0.290416C16.1962 0.307453 16.2409 0.325383 16.2847 0.342331C16.3383 0.363829 16.392 0.385327 16.4447 0.406824C16.4894 0.424754 16.5332 0.442683 16.577 0.461416C16.628 0.482913 16.678 0.504411 16.7281 0.525909C16.7844 0.550082 16.8408 0.575148 16.897 0.600214C17.0258 0.657571 17.1536 0.716623 17.2805 0.777547C17.3368 0.804397 17.3932 0.832139 17.4486 0.85997C17.5559 0.912777 17.6631 0.967458 17.7695 1.02294C17.824 1.05158 17.8777 1.07932 17.9313 1.10893C17.9965 1.1439 18.0609 1.17878 18.1252 1.21553C18.5105 1.42863 18.8885 1.65877 19.2605 1.90417C19.3257 1.94716 19.3901 1.99016 19.4545 2.03404C19.9622 2.37881 20.4574 2.7531 20.9384 3.15255C20.9983 3.20179 21.0572 3.25192 21.1163 3.30214C21.3048 3.46244 21.4917 3.6263 21.6759 3.79471C21.734 3.84841 21.7921 3.9022 21.8502 3.9559C22.1497 4.23439 22.4429 4.52367 22.7308 4.82276C22.7799 4.87468 22.8299 4.92668 22.8792 4.97949C22.9418 5.04577 23.0043 5.11205 23.066 5.17921C23.1143 5.23202 23.1625 5.28492 23.2108 5.33773C23.2662 5.39865 23.3207 5.45859 23.3752 5.52041C23.436 5.58847 23.4959 5.65653 23.5558 5.72549C23.5978 5.77383 23.6399 5.82307 23.6819 5.87142C23.7409 5.94037 23.799 6.00933 23.8571 6.07828C23.9098 6.14188 23.9626 6.20459 24.0145 6.2681C24.0672 6.3317 24.12 6.39619 24.1709 6.4606C24.2201 6.52063 24.2683 6.58147 24.3157 6.64239C24.3469 6.68004 24.3765 6.71759 24.406 6.75612C24.448 6.80804 24.4891 6.86094 24.5293 6.91464C24.5633 6.95852 24.5972 7.00241 24.6303 7.0463C24.7312 7.17885 24.8305 7.3123 24.9297 7.44664C25.0298 7.58365 25.1291 7.72066 25.2265 7.85946C25.2739 7.92574 25.3194 7.99202 25.3659 8.05829C25.4133 8.12635 25.4607 8.1962 25.508 8.26515C25.5554 8.33411 25.6019 8.40395 25.6484 8.4738C25.6859 8.52839 25.7225 8.58396 25.7592 8.63944C26.4618 9.70603 27.1019 10.829 27.6731 11.9869C27.7401 12.123 27.8063 12.2592 27.8715 12.3962C28.1933 13.0705 28.491 13.7556 28.7645 14.4478C28.7949 14.5248 28.8253 14.6019 28.8548 14.6789C28.8852 14.7558 28.9147 14.8329 28.9433 14.9108C28.9728 14.9878 29.0015 15.0648 29.0301 15.1427C29.0586 15.2197 29.0873 15.2968 29.115 15.3746C29.2026 15.6173 29.2876 15.8609 29.3689 16.1045C29.3912 16.1725 29.4144 16.2397 29.4359 16.3078C29.4618 16.3856 29.4877 16.4636 29.5119 16.5415C29.5369 16.6202 29.5619 16.6982 29.586 16.7761C29.6522 16.9892 29.7166 17.2024 29.7773 17.4155C29.7889 17.4567 29.8005 17.497 29.8122 17.5372C29.8292 17.5964 29.8452 17.6554 29.8622 17.7146C29.8837 17.7933 29.9052 17.8722 29.9266 17.9501C29.9472 18.0279 29.9677 18.1068 29.9883 18.1847C30.0107 18.2671 30.0312 18.3494 30.0518 18.4318C30.0876 18.5742 30.1224 18.7166 30.1573 18.859C30.1779 18.9477 30.1985 19.0364 30.219 19.125C30.2529 19.2773 30.287 19.4286 30.3191 19.5809C30.32 19.5853 30.3209 19.5898 30.3218 19.5943C30.3548 19.7502 30.3862 19.9051 30.4165 20.06C30.5229 20.6071 30.6132 21.1525 30.6856 21.6934C30.6963 21.7713 30.7062 21.8484 30.716 21.9254C30.7195 21.9558 30.7231 21.9854 30.7266 22.0158C30.7445 22.1573 30.7607 22.2979 30.7749 22.4384C30.7838 22.5172 30.7919 22.5961 30.799 22.6739C30.8143 22.8307 30.8285 22.9874 30.8402 23.1423C30.8517 23.2937 30.8625 23.445 30.8714 23.5955C30.8768 23.6859 30.8821 23.7764 30.8858 23.8659C30.8893 23.9331 30.892 24.0012 30.8956 24.0683V24.0728C30.8982 24.1462 30.9009 24.2196 30.9036 24.2922V24.3111C30.9053 24.3836 30.9071 24.4561 30.9089 24.5287C30.9107 24.6074 30.9116 24.6862 30.9116 24.7641Z" fill="url(#paint0_radial_68_1663)"/>
<path d="M25.0433 30.6393C24.2768 34.4074 20.5849 36.9018 16.8351 36.0799C13.1153 35.2646 10.773 31.5741 11.6078 27.8576C12.0371 25.9466 13.2624 24.4112 14.8554 23.4872C17.5507 21.9237 19.223 19.1475 19.6475 16.0564C19.6482 16.0512 19.649 16.0489 19.6499 16.0494C24.1395 18.4908 26.0724 25.58 25.0433 30.6393Z" fill="url(#paint1_radial_68_1663)"/>
<path d="M30.9116 24.7641C30.9116 24.8196 30.9107 24.8761 30.9107 24.9324C30.9045 25.4124 30.8731 25.8871 30.8177 26.3545C30.6792 27.5204 30.3913 28.6434 29.9721 29.7002C29.9524 29.7494 29.9328 29.7987 29.9122 29.8479C29.8916 29.8963 29.871 29.9455 29.8514 29.9947C29.8299 30.0431 29.8093 30.0923 29.7879 30.1407C29.7772 30.1639 29.7664 30.1872 29.7566 30.2114C29.7432 30.2409 29.7298 30.2705 29.7164 30.3001C29.6949 30.3475 29.6726 30.3959 29.6502 30.4442C27.857 34.2663 24.3101 37.1033 20.0157 37.7982C19.9594 37.8071 19.9031 37.8161 19.8468 37.8242C19.6332 37.8564 19.4177 37.8824 19.2014 37.9039C18.817 37.9407 18.4282 37.9603 18.034 37.963C10.8425 38.0052 5 32.1781 5 24.9835C5 24.868 5.00178 24.7525 5.00445 24.6379C5.00623 24.5805 5.00801 24.5233 5.01068 24.4659C5.01247 24.4238 5.01425 24.3817 5.01692 24.3396C5.02858 24.096 5.04817 23.8543 5.07506 23.6142C5.08673 23.5058 5.10008 23.3974 5.11442 23.2901C5.14033 23.1002 5.17069 22.9112 5.20471 22.7232C5.21539 22.6686 5.22527 22.613 5.23685 22.5575C5.25653 22.4554 5.27799 22.3533 5.30034 22.2522C5.31013 22.2092 5.32001 22.1662 5.3307 22.1232C5.41921 21.7444 5.52561 21.3719 5.64804 21.0056C5.66505 20.9537 5.68295 20.9017 5.70164 20.8498C5.71598 20.8068 5.73112 20.7647 5.74723 20.7217C5.77938 20.6312 5.81339 20.5417 5.84821 20.4521C5.86432 20.4091 5.88124 20.367 5.89825 20.3249C5.92594 20.255 5.95452 20.1852 5.98408 20.1154C6.00732 20.0599 6.03145 20.0043 6.05558 19.9488C6.07971 19.8933 6.10384 19.8386 6.12886 19.7841C6.15745 19.7213 6.18701 19.6587 6.21559 19.5969C6.23794 19.5504 6.26029 19.5038 6.28353 19.4572C6.31033 19.4026 6.33713 19.3488 6.36402 19.2951C6.39171 19.2414 6.41851 19.1877 6.44719 19.1348C6.47488 19.0811 6.50257 19.0283 6.53213 18.9754C6.56071 18.9226 6.58938 18.8697 6.61886 18.8178C6.64477 18.7713 6.67157 18.7247 6.69837 18.679C6.85571 18.405 7.02373 18.1372 7.20163 17.8758C7.22932 17.8337 7.2579 17.7916 7.28747 17.7504C7.83632 16.9614 8.47011 16.2344 9.1754 15.5806C9.43825 15.3379 9.71081 15.1051 9.99245 14.883C14.3341 11.4603 16.3016 5.82655 15.0448 0.437331C14.9662 0.0997021 15.2728 0.00211549 15.4605 0.0460028C15.4694 0.0486789 15.4784 0.0513549 15.4873 0.054031C15.4917 0.055815 15.4971 0.057599 15.5016 0.058491C15.5624 0.0790967 15.6231 0.0988103 15.6831 0.120308C15.8404 0.174008 15.9968 0.231364 16.1515 0.290416C16.1962 0.307453 16.2409 0.325383 16.2847 0.342331C16.3383 0.363829 16.392 0.385327 16.4447 0.406824C16.4894 0.424754 16.5332 0.442683 16.577 0.461416C16.628 0.482913 16.678 0.504411 16.7281 0.525909C16.7844 0.550082 16.8408 0.575148 16.897 0.600214C17.0258 0.657571 17.1536 0.716623 17.2805 0.777547C17.3368 0.804397 17.3932 0.832139 17.4486 0.85997C17.5559 0.912777 17.6631 0.967458 17.7695 1.02294C17.824 1.05158 17.8777 1.07932 17.9313 1.10893C17.9965 1.1439 18.0609 1.17878 18.1252 1.21553C18.5105 1.42863 18.8885 1.65877 19.2605 1.90417C19.3257 1.94716 19.3901 1.99016 19.4545 2.03404C19.9622 2.37881 20.4574 2.7531 20.9384 3.15255C20.9983 3.20179 21.0572 3.25192 21.1163 3.30214C21.3048 3.46244 21.4917 3.6263 21.6759 3.79471C21.734 3.84841 21.7921 3.9022 21.8502 3.9559C22.1497 4.23439 22.4429 4.52367 22.7308 4.82276C22.7799 4.87468 22.8299 4.92668 22.8792 4.97949C22.9418 5.04577 23.0043 5.11205 23.066 5.17921C23.1143 5.23202 23.1625 5.28492 23.2108 5.33773C23.2662 5.39865 23.3207 5.45859 23.3752 5.52041C23.436 5.58847 23.4959 5.65653 23.5558 5.72549C23.5978 5.77383 23.6399 5.82307 23.6819 5.87142C23.7409 5.94037 23.799 6.00933 23.8571 6.07828C23.9098 6.14188 23.9626 6.20459 24.0145 6.2681C24.0672 6.3317 24.12 6.39619 24.1709 6.4606C24.2201 6.52063 24.2683 6.58147 24.3157 6.64239C24.3469 6.68004 24.3765 6.71759 24.406 6.75612C24.448 6.80804 24.4891 6.86094 24.5293 6.91464C24.5633 6.95852 24.5972 7.00241 24.6303 7.0463C24.7312 7.17885 24.8305 7.3123 24.9297 7.44664C25.0298 7.58365 25.1291 7.72066 25.2265 7.85946C25.2739 7.92574 25.3194 7.99202 25.3659 8.05829C25.4133 8.12635 25.4607 8.1962 25.508 8.26515C25.5554 8.33411 25.6019 8.40395 25.6484 8.4738C25.6859 8.52839 25.7225 8.58396 25.7592 8.63944C26.4618 9.70603 27.1019 10.829 27.6731 11.9869C27.7401 12.123 27.8063 12.2592 27.8715 12.3962C28.1933 13.0705 28.491 13.7556 28.7645 14.4478C28.7949 14.5248 28.8253 14.6019 28.8548 14.6789C28.8852 14.7558 28.9147 14.8329 28.9433 14.9108C28.9728 14.9878 29.0015 15.0648 29.0301 15.1427C29.0586 15.2197 29.0873 15.2968 29.115 15.3746C29.2026 15.6173 29.2876 15.8609 29.3689 16.1045C29.3912 16.1725 29.4144 16.2397 29.4359 16.3078C29.4618 16.3856 29.4877 16.4636 29.5119 16.5415C29.5369 16.6202 29.5619 16.6982 29.586 16.7761C29.6522 16.9892 29.7157 17.2024 29.7773 17.4155C29.7889 17.4567 29.8005 17.497 29.8122 17.5372C29.8292 17.5964 29.8452 17.6554 29.8622 17.7146C29.8837 17.7933 29.9052 17.8722 29.9266 17.9501C29.9472 18.0279 29.9677 18.1068 29.9883 18.1847C30.0107 18.2671 30.0312 18.3494 30.0518 18.4318C30.0876 18.5742 30.1224 18.7166 30.1573 18.859C30.1779 18.9477 30.1985 19.0364 30.219 19.125C30.2529 19.2773 30.287 19.4286 30.3191 19.5809C30.32 19.5853 30.3209 19.5898 30.3218 19.5943C30.3548 19.7502 30.3862 19.9051 30.4165 20.06C30.5229 20.6071 30.6132 21.1525 30.6856 21.6934C30.6963 21.7713 30.7062 21.8484 30.716 21.9254C30.7195 21.9558 30.7231 21.9854 30.7266 22.0158C30.7445 22.1573 30.7607 22.2979 30.7749 22.4384C30.7838 22.5172 30.7919 22.5961 30.799 22.6739C30.8143 22.8307 30.8285 22.9874 30.8402 23.1423C30.8517 23.2937 30.8625 23.445 30.8714 23.5955C30.8768 23.6859 30.8821 23.7764 30.8858 23.8659C30.8893 23.9331 30.892 24.0012 30.8956 24.0683V24.0728C30.8982 24.1462 30.9009 24.2196 30.9036 24.2922V24.3111C30.9053 24.3505 30.9062 24.3898 30.9071 24.4292C30.908 24.4623 30.9089 24.4955 30.9089 24.5286C30.9107 24.6074 30.9116 24.6862 30.9116 24.7641Z" fill="url(#paint2_radial_68_1663)"/>
<path d="M27.9667 24.0899C27.6911 29.88 22.7647 34.4478 16.9895 34.0886C11.2606 33.7322 6.92287 28.7747 7.31198 23.0458C7.51215 20.0998 8.98462 17.5297 11.1453 15.7856C14.8012 12.8345 17.1655 7.94709 17.0874 3.24428C17.0874 3.24392 17.0876 3.24258 17.0882 3.24035C17.1752 2.91289 17.537 2.74136 17.8476 2.87543C24.7222 5.84139 28.3267 16.5244 27.9667 24.0899Z" fill="url(#paint3_linear_68_1663)"/>
</g>
<defs>
<radialGradient id="paint0_radial_68_1663" cx="0" cy="0" r="1" gradientUnits="userSpaceOnUse" gradientTransform="translate(4.34345 -0.0702333) scale(37.6861 37.7542)">
<stop stop-color="#FFCF42"/>
<stop offset="0.262" stop-color="#FFCD42"/>
<stop offset="0.408" stop-color="#FFC540"/>
<stop offset="0.525" stop-color="#FFB73E"/>
<stop offset="0.628" stop-color="#FFA33A"/>
<stop offset="0.72" stop-color="#FF8A35"/>
<stop offset="0.805" stop-color="#FF6A30"/>
<stop offset="0.885" stop-color="#FF4529"/>
<stop offset="0.958" stop-color="#FF1B21"/>
<stop offset="1" stop-color="#FF001C"/>
</radialGradient>
<radialGradient id="paint1_radial_68_1663" cx="0" cy="0" r="1" gradientUnits="userSpaceOnUse" gradientTransform="translate(19.3612 20.5675) scale(14.1421 14.1677)">
<stop stop-color="#FFB500" stop-opacity="0"/>
<stop offset="0.109" stop-color="#FCAD01" stop-opacity="0.109"/>
<stop offset="0.281" stop-color="#F49605" stop-opacity="0.281"/>
<stop offset="0.496" stop-color="#E8710B" stop-opacity="0.496"/>
<stop offset="0.744" stop-color="#D63D13" stop-opacity="0.744"/>
<stop offset="1" stop-color="#C1001C"/>
</radialGradient>
<radialGradient id="paint2_radial_68_1663" cx="0" cy="0" r="1" gradientUnits="userSpaceOnUse" gradientTransform="translate(14.5136 11.9447) scale(25.0958 25.1411)">
<stop stop-color="#F9C6A0" stop-opacity="0"/>
<stop offset="0.014" stop-color="#F9C69E" stop-opacity="0"/>
<stop offset="0.02" stop-color="#FAC797" stop-opacity="0"/>
<stop offset="0.023" stop-color="#FAC88C" stop-opacity="0"/>
<stop offset="0.026" stop-color="#FBCA7B" stop-opacity="0"/>
<stop offset="0.029" stop-color="#FDCC65" stop-opacity="0"/>
<stop offset="0.031" stop-color="#FECE4A" stop-opacity="0"/>
<stop offset="0.032" stop-color="#FFCF42" stop-opacity="0"/>
<stop offset="0.408" stop-color="#FFCD42" stop-opacity="0.389"/>
<stop offset="0.543" stop-color="#FFC640" stop-opacity="0.529"/>
<stop offset="0.64" stop-color="#FFBB3E" stop-opacity="0.628"/>
<stop offset="0.718" stop-color="#FFAA3B" stop-opacity="0.709"/>
<stop offset="0.785" stop-color="#FF9437" stop-opacity="0.778"/>
<stop offset="0.845" stop-color="#FF7832" stop-opacity="0.839"/>
<stop offset="0.898" stop-color="#FF582C" stop-opacity="0.895"/>
<stop offset="0.947" stop-color="#FF3225" stop-opacity="0.946"/>
<stop offset="0.991" stop-color="#FF091E" stop-opacity="0.991"/>
<stop offset="1" stop-color="#FF001C"/>
</radialGradient>
<linearGradient id="paint3_linear_68_1663" x1="22.758" y1="16.2346" x2="45.9593" y2="2.79014" gradientUnits="userSpaceOnUse">
<stop offset="0.0001" stop-color="#E7EEED" stop-opacity="0"/>
<stop offset="1" stop-color="#E7EEED"/>
</linearGradient>
<clipPath id="clip0_68_1663">
<rect width="26" height="38" fill="white" transform="translate(5)"/>
</clipPath>
</defs>
</svg>
